<mxfile host="app.diagrams.net" agent="Mozilla/5.0 (Macintosh; Intel Mac OS X 10_15_7) AppleWebKit/605.1.15 (KHTML, like Gecko) Version/18.2 Safari/605.1.15" version="26.0.3">
  <diagram name="Page-1" id="ppxMbuK1FL39pvvQCpOG">
    <mxGraphModel dx="1242" dy="855" grid="1" gridSize="10" guides="1" tooltips="1" connect="1" arrows="1" fold="1" page="1" pageScale="1" pageWidth="850" pageHeight="1100" math="0" shadow="0">
      <root>
        <mxCell id="0" />
        <mxCell id="1" parent="0" />
        <mxCell id="71t9Yjp6_9-igJBRCe6k-6" style="edgeStyle=orthogonalEdgeStyle;rounded=0;orthogonalLoop=1;jettySize=auto;html=1;strokeWidth=2;" parent="1" source="71t9Yjp6_9-igJBRCe6k-1" target="71t9Yjp6_9-igJBRCe6k-5" edge="1">
          <mxGeometry relative="1" as="geometry" />
        </mxCell>
        <mxCell id="71t9Yjp6_9-igJBRCe6k-14" style="edgeStyle=orthogonalEdgeStyle;rounded=0;orthogonalLoop=1;jettySize=auto;html=1;exitX=0.5;exitY=1;exitDx=0;exitDy=0;entryX=0;entryY=0.5;entryDx=0;entryDy=0;strokeWidth=2;endArrow=none;endFill=0;" parent="1" source="71t9Yjp6_9-igJBRCe6k-1" target="71t9Yjp6_9-igJBRCe6k-4" edge="1">
          <mxGeometry relative="1" as="geometry" />
        </mxCell>
        <mxCell id="71t9Yjp6_9-igJBRCe6k-1" value="&lt;b&gt;Patient Cohort&lt;/b&gt;&lt;br&gt;&lt;div&gt;Patients who underwent temporal artery biopsy (TAB) from January 1, 2000, to December 31, 2019 (&lt;b&gt;n=664&lt;/b&gt;)&lt;br&gt;&lt;/div&gt;" style="rounded=0;whiteSpace=wrap;html=1;" parent="1" vertex="1">
          <mxGeometry x="320" y="150" width="230" height="70" as="geometry" />
        </mxCell>
        <mxCell id="71t9Yjp6_9-igJBRCe6k-4" value="&lt;div align=&quot;left&quot;&gt;&lt;br&gt;&lt;/div&gt;&lt;div align=&quot;left&quot;&gt;&lt;b&gt;Exclusion Criteria (n=192)&lt;/b&gt;&lt;br&gt;&lt;/div&gt;&lt;div align=&quot;left&quot;&gt;1. No artery in section&lt;br&gt;&lt;/div&gt;&lt;div align=&quot;left&quot;&gt;2. Scan out of focus&lt;br&gt;&lt;/div&gt;&lt;div align=&quot;left&quot;&gt;3. Pentachrome stained&lt;/div&gt;" style="rounded=0;whiteSpace=wrap;html=1;align=left;verticalAlign=bottom;spacingLeft=7;" parent="1" vertex="1">
          <mxGeometry x="467" y="230" width="160" height="70" as="geometry" />
        </mxCell>
        <mxCell id="71t9Yjp6_9-igJBRCe6k-12" style="edgeStyle=orthogonalEdgeStyle;rounded=0;orthogonalLoop=1;jettySize=auto;html=1;exitX=0.5;exitY=1;exitDx=0;exitDy=0;entryX=0.5;entryY=0;entryDx=0;entryDy=0;strokeWidth=2;" parent="1" source="71t9Yjp6_9-igJBRCe6k-5" target="71t9Yjp6_9-igJBRCe6k-10" edge="1">
          <mxGeometry relative="1" as="geometry">
            <Array as="points">
              <mxPoint x="435" y="380" />
              <mxPoint x="535" y="380" />
            </Array>
          </mxGeometry>
        </mxCell>
        <mxCell id="71t9Yjp6_9-igJBRCe6k-13" style="edgeStyle=orthogonalEdgeStyle;rounded=0;orthogonalLoop=1;jettySize=auto;html=1;exitX=0.5;exitY=1;exitDx=0;exitDy=0;strokeWidth=2;" parent="1" source="71t9Yjp6_9-igJBRCe6k-5" target="71t9Yjp6_9-igJBRCe6k-8" edge="1">
          <mxGeometry relative="1" as="geometry">
            <Array as="points">
              <mxPoint x="435" y="380" />
              <mxPoint x="335" y="380" />
            </Array>
          </mxGeometry>
        </mxCell>
        <mxCell id="71t9Yjp6_9-igJBRCe6k-5" value="&lt;b&gt;Study Population &lt;/b&gt;(&lt;b&gt;n=472&lt;/b&gt;)&lt;div&gt;GCA positive (n=140)&lt;br&gt;&lt;/div&gt;&lt;div&gt;GCA negative (n=332)&lt;br&gt;&lt;/div&gt;" style="rounded=0;whiteSpace=wrap;html=1;" parent="1" vertex="1">
          <mxGeometry x="350" y="310" width="170" height="60" as="geometry" />
        </mxCell>
        <mxCell id="71t9Yjp6_9-igJBRCe6k-17" style="edgeStyle=orthogonalEdgeStyle;rounded=0;orthogonalLoop=1;jettySize=auto;html=1;exitX=0.5;exitY=1;exitDx=0;exitDy=0;fontStyle=0;strokeWidth=2;entryX=0.5;entryY=0;entryDx=0;entryDy=0;" parent="1" source="71t9Yjp6_9-igJBRCe6k-8" target="71t9Yjp6_9-igJBRCe6k-15" edge="1">
          <mxGeometry relative="1" as="geometry">
            <Array as="points">
              <mxPoint x="335" y="467" />
              <mxPoint x="235" y="467" />
            </Array>
          </mxGeometry>
        </mxCell>
        <mxCell id="71t9Yjp6_9-igJBRCe6k-18" value="" style="edgeStyle=orthogonalEdgeStyle;rounded=0;orthogonalLoop=1;jettySize=auto;html=1;exitX=0.5;exitY=1;exitDx=0;exitDy=0;fontSize=12;fontStyle=0;strokeWidth=2;" parent="1" source="71t9Yjp6_9-igJBRCe6k-8" target="71t9Yjp6_9-igJBRCe6k-16" edge="1">
          <mxGeometry relative="1" as="geometry">
            <Array as="points">
              <mxPoint x="335" y="467" />
              <mxPoint x="455" y="467" />
            </Array>
          </mxGeometry>
        </mxCell>
        <mxCell id="71t9Yjp6_9-igJBRCe6k-8" value="&lt;b&gt;Training &amp;amp; Validation Set &lt;/b&gt;(n=336)&lt;div&gt;GCA positive (n=100)&lt;br&gt;&lt;/div&gt;GCA negative (n=236)" style="rounded=0;whiteSpace=wrap;html=1;" parent="1" vertex="1">
          <mxGeometry x="240" y="399" width="190" height="58" as="geometry" />
        </mxCell>
        <mxCell id="71t9Yjp6_9-igJBRCe6k-23" style="edgeStyle=orthogonalEdgeStyle;rounded=0;orthogonalLoop=1;jettySize=auto;html=1;entryX=0.5;entryY=0;entryDx=0;entryDy=0;strokeWidth=2;" parent="1" source="71t9Yjp6_9-igJBRCe6k-10" target="71t9Yjp6_9-igJBRCe6k-22" edge="1">
          <mxGeometry relative="1" as="geometry">
            <Array as="points">
              <mxPoint x="535" y="470" />
              <mxPoint x="635" y="470" />
            </Array>
          </mxGeometry>
        </mxCell>
        <mxCell id="71t9Yjp6_9-igJBRCe6k-10" value="&lt;div&gt;&lt;b&gt;Held-out Test Set &lt;/b&gt;(n=136)&lt;div&gt;GCA positive (n=40)&lt;br&gt;&lt;/div&gt;GCA negative (n=96)&lt;/div&gt;" style="rounded=0;whiteSpace=wrap;html=1;" parent="1" vertex="1">
          <mxGeometry x="440" y="399" width="190" height="58" as="geometry" />
        </mxCell>
        <mxCell id="71t9Yjp6_9-igJBRCe6k-15" value="&lt;b&gt;Training Split &lt;/b&gt;(80% of patches)&lt;br&gt;&lt;b&gt;&lt;/b&gt;&lt;div&gt;GCA positive &lt;i&gt;patches&lt;/i&gt; (p=742)&lt;br&gt;&lt;/div&gt;GCA negative &lt;i&gt;patches&lt;/i&gt; (p=2105)" style="rounded=0;whiteSpace=wrap;html=1;" parent="1" vertex="1">
          <mxGeometry x="140" y="498" width="190" height="58" as="geometry" />
        </mxCell>
        <mxCell id="71t9Yjp6_9-igJBRCe6k-16" value="&lt;b&gt;Validation Split &lt;/b&gt;(20% of patches)&lt;b&gt;&lt;br&gt;&lt;/b&gt;&lt;div&gt;GCA positive &lt;i&gt;patches&lt;/i&gt; (p=185)&lt;br&gt;&lt;/div&gt;GCA negative &lt;i&gt;patches&lt;/i&gt; (p=526)" style="rounded=0;whiteSpace=wrap;html=1;" parent="1" vertex="1">
          <mxGeometry x="340" y="498" width="190" height="58" as="geometry" />
        </mxCell>
        <mxCell id="71t9Yjp6_9-igJBRCe6k-20" value="&lt;i&gt;Random Stratified Split at Patch-level&lt;/i&gt;" style="text;html=1;strokeColor=none;fillColor=none;align=center;verticalAlign=middle;whiteSpace=wrap;rounded=0;fontSize=12;" parent="1" vertex="1">
          <mxGeometry x="240" y="467" width="210" height="20" as="geometry" />
        </mxCell>
        <mxCell id="71t9Yjp6_9-igJBRCe6k-22" value="&lt;b&gt;Held-out Test Split&lt;/b&gt;&lt;b&gt;&lt;br&gt;&lt;/b&gt;&lt;div&gt;GCA positive &lt;i&gt;patches&lt;/i&gt; (p=251)&lt;br&gt;&lt;/div&gt;GCA negative &lt;i&gt;patches&lt;/i&gt; (p=990)" style="rounded=0;whiteSpace=wrap;html=1;" parent="1" vertex="1">
          <mxGeometry x="540" y="498" width="190" height="58" as="geometry" />
        </mxCell>
      </root>
    </mxGraphModel>
  </diagram>
</mxfile>
